<?xml version="1.0" encoding="UTF-8"?>
<!DOCTYPE svg PUBLIC "-//W3C//DTD SVG 1.1//EN" "http://www.w3.org/Graphics/SVG/1.1/DTD/svg11.dtd">
<svg xmlns="http://www.w3.org/2000/svg" version="1.1" width="1150px" height="782px" style="shape-rendering:geometricPrecision; text-rendering:geometricPrecision; image-rendering:optimizeQuality; fill-rule:evenodd; clip-rule:evenodd" xmlns:xlink="http://www.w3.org/1999/xlink">
<g><path style="opacity:1" fill="#000000" d="M 399.5,29.5 C 427.833,29.5 456.167,29.5 484.5,29.5C 484.5,33.5 484.5,37.5 484.5,41.5C 504.5,41.5 524.5,41.5 544.5,41.5C 544.5,45.5 544.5,49.5 544.5,53.5C 554.5,53.5 564.5,53.5 574.5,53.5C 574.5,56.8333 574.5,60.1667 574.5,63.5C 582.5,63.5 590.5,63.5 598.5,63.5C 598.5,67.5 598.5,71.5 598.5,75.5C 606.5,75.5 614.5,75.5 622.5,75.5C 622.5,79.5 622.5,83.5 622.5,87.5C 628.5,87.5 634.5,87.5 640.5,87.5C 640.5,91.5 640.5,95.5 640.5,99.5C 646.5,99.5 652.5,99.5 658.5,99.5C 658.5,102.833 658.5,106.167 658.5,109.5C 664.5,109.5 670.5,109.5 676.5,109.5C 676.5,113.5 676.5,117.5 676.5,121.5C 680.5,121.5 684.5,121.5 688.5,121.5C 688.5,125.5 688.5,129.5 688.5,133.5C 694.5,133.5 700.5,133.5 706.5,133.5C 706.5,136.833 706.5,140.167 706.5,143.5C 710.5,143.5 714.5,143.5 718.5,143.5C 718.5,147.5 718.5,151.5 718.5,155.5C 722.5,155.5 726.5,155.5 730.5,155.5C 730.5,159.5 730.5,163.5 730.5,167.5C 734.5,167.5 738.5,167.5 742.5,167.5C 742.5,170.833 742.5,174.167 742.5,177.5C 744.5,177.5 746.5,177.5 748.5,177.5C 748.5,181.5 748.5,185.5 748.5,189.5C 752.5,189.5 756.5,189.5 760.5,189.5C 760.5,193.5 760.5,197.5 760.5,201.5C 764.5,201.5 768.5,201.5 772.5,201.5C 772.5,205.5 772.5,209.5 772.5,213.5C 776.5,213.5 780.5,213.5 784.5,213.5C 784.5,216.833 784.5,220.167 784.5,223.5C 786.5,223.5 788.5,223.5 790.5,223.5C 790.5,227.5 790.5,231.5 790.5,235.5C 794.5,235.5 798.5,235.5 802.5,235.5C 802.5,239.5 802.5,243.5 802.5,247.5C 804.5,247.5 806.5,247.5 808.5,247.5C 808.5,250.833 808.5,254.167 808.5,257.5C 810.5,257.5 812.5,257.5 814.5,257.5C 814.5,261.5 814.5,265.5 814.5,269.5C 818.5,269.5 822.5,269.5 826.5,269.5C 826.5,273.5 826.5,277.5 826.5,281.5C 828.5,281.5 830.5,281.5 832.5,281.5C 832.5,284.833 832.5,288.167 832.5,291.5C 834.5,291.5 836.5,291.5 838.5,291.5C 838.5,295.5 838.5,299.5 838.5,303.5C 842.5,303.5 846.5,303.5 850.5,303.5C 850.5,307.5 850.5,311.5 850.5,315.5C 852.5,315.5 854.5,315.5 856.5,315.5C 856.5,319.5 856.5,323.5 856.5,327.5C 858.5,327.5 860.5,327.5 862.5,327.5C 862.5,343.167 862.5,358.833 862.5,374.5C 860.5,374.5 858.5,374.5 856.5,374.5C 856.5,381.833 856.5,389.167 856.5,396.5C 854.5,396.5 852.5,396.5 850.5,396.5C 850.5,403.833 850.5,411.167 850.5,418.5C 848.5,418.5 846.5,418.5 844.5,418.5C 844.5,422.5 844.5,426.5 844.5,430.5C 830.167,430.5 815.833,430.5 801.5,430.5C 801.5,426.167 801.5,421.833 801.5,417.5C 803.5,417.5 805.5,417.5 807.5,417.5C 807.5,413.5 807.5,409.5 807.5,405.5C 811.5,405.5 815.5,405.5 819.5,405.5C 819.5,402.167 819.5,398.833 819.5,395.5C 821.5,395.5 823.5,395.5 825.5,395.5C 825.5,387.5 825.5,379.5 825.5,371.5C 827.5,371.5 829.5,371.5 831.5,371.5C 831.5,361.167 831.5,350.833 831.5,340.5C 829.5,340.5 827.5,340.5 825.5,340.5C 825.5,336.5 825.5,332.5 825.5,328.5C 823.5,328.5 821.5,328.5 819.5,328.5C 819.5,324.5 819.5,320.5 819.5,316.5C 817.5,316.5 815.5,316.5 813.5,316.5C 813.5,312.5 813.5,308.5 813.5,304.5C 809.5,304.5 805.5,304.5 801.5,304.5C 801.5,301.167 801.5,297.833 801.5,294.5C 799.5,294.5 797.5,294.5 795.5,294.5C 795.5,290.5 795.5,286.5 795.5,282.5C 793.5,282.5 791.5,282.5 789.5,282.5C 789.5,278.5 789.5,274.5 789.5,270.5C 785.5,270.5 781.5,270.5 777.5,270.5C 777.5,267.167 777.5,263.833 777.5,260.5C 775.5,260.5 773.5,260.5 771.5,260.5C 771.5,256.5 771.5,252.5 771.5,248.5C 767.5,248.5 763.5,248.5 759.5,248.5C 759.5,244.5 759.5,240.5 759.5,236.5C 755.5,236.5 751.5,236.5 747.5,236.5C 747.5,233.167 747.5,229.833 747.5,226.5C 745.5,226.5 743.5,226.5 741.5,226.5C 741.5,222.5 741.5,218.5 741.5,214.5C 737.5,214.5 733.5,214.5 729.5,214.5C 729.5,210.5 729.5,206.5 729.5,202.5C 725.5,202.5 721.5,202.5 717.5,202.5C 717.5,198.5 717.5,194.5 717.5,190.5C 713.5,190.5 709.5,190.5 705.5,190.5C 705.5,187.167 705.5,183.833 705.5,180.5C 701.5,180.5 697.5,180.5 693.5,180.5C 693.5,176.5 693.5,172.5 693.5,168.5C 689.5,168.5 685.5,168.5 681.5,168.5C 681.5,164.5 681.5,160.5 681.5,156.5C 677.5,156.5 673.5,156.5 669.5,156.5C 669.5,153.167 669.5,149.833 669.5,146.5C 663.5,146.5 657.5,146.5 651.5,146.5C 651.5,142.5 651.5,138.5 651.5,134.5C 645.5,134.5 639.5,134.5 633.5,134.5C 633.5,130.5 633.5,126.5 633.5,122.5C 627.5,122.5 621.5,122.5 615.5,122.5C 615.5,119.167 615.5,115.833 615.5,112.5C 609.5,112.5 603.5,112.5 597.5,112.5C 597.5,108.5 597.5,104.5 597.5,100.5C 589.5,100.5 581.5,100.5 573.5,100.5C 573.5,96.5 573.5,92.5 573.5,88.5C 563.5,88.5 553.5,88.5 543.5,88.5C 543.5,84.5 543.5,80.5 543.5,76.5C 531.5,76.5 519.5,76.5 507.5,76.5C 507.5,73.1667 507.5,69.8333 507.5,66.5C 467.833,66.5 428.167,66.5 388.5,66.5C 388.5,69.8333 388.5,73.1667 388.5,76.5C 334.5,76.5 280.5,76.5 226.5,76.5C 226.5,80.5 226.5,84.5 226.5,88.5C 218.5,88.5 210.5,88.5 202.5,88.5C 202.5,92.5 202.5,96.5 202.5,100.5C 198.5,100.5 194.5,100.5 190.5,100.5C 190.5,104.5 190.5,108.5 190.5,112.5C 186.5,112.5 182.5,112.5 178.5,112.5C 178.5,115.833 178.5,119.167 178.5,122.5C 176.5,122.5 174.5,122.5 172.5,122.5C 172.5,126.5 172.5,130.5 172.5,134.5C 170.5,134.5 168.5,134.5 166.5,134.5C 166.5,141.833 166.5,149.167 166.5,156.5C 164.5,156.5 162.5,156.5 160.5,156.5C 160.5,175.5 160.5,194.5 160.5,213.5C 162.5,213.5 164.5,213.5 166.5,213.5C 166.5,216.833 166.5,220.167 166.5,223.5C 172.5,223.5 178.5,223.5 184.5,223.5C 184.5,254.167 184.5,284.833 184.5,315.5C 186.5,315.5 188.5,315.5 190.5,315.5C 190.5,319.833 190.5,324.167 190.5,328.5C 182.167,328.5 173.833,328.5 165.5,328.5C 165.5,324.5 165.5,320.5 165.5,316.5C 159.5,316.5 153.5,316.5 147.5,316.5C 147.5,312.5 147.5,308.5 147.5,304.5C 145.5,304.5 143.5,304.5 141.5,304.5C 141.5,278.5 141.5,252.5 141.5,226.5C 139.5,226.5 137.5,226.5 135.5,226.5C 135.5,195.5 135.5,164.5 135.5,133.5C 137.5,133.5 139.5,133.5 141.5,133.5C 141.5,125.5 141.5,117.5 141.5,109.5C 143.5,109.5 145.5,109.5 147.5,109.5C 147.5,106.167 147.5,102.833 147.5,99.5C 151.5,99.5 155.5,99.5 159.5,99.5C 159.5,95.5 159.5,91.5 159.5,87.5C 161.5,87.5 163.5,87.5 165.5,87.5C 165.5,83.5 165.5,79.5 165.5,75.5C 169.5,75.5 173.5,75.5 177.5,75.5C 177.5,71.5 177.5,67.5 177.5,63.5C 185.5,63.5 193.5,63.5 201.5,63.5C 201.5,60.1667 201.5,56.8333 201.5,53.5C 211.5,53.5 221.5,53.5 231.5,53.5C 231.5,49.5 231.5,45.5 231.5,41.5C 253.833,41.5 276.167,41.5 298.5,41.5C 298.5,45.5 298.5,49.5 298.5,53.5C 312.167,53.5 325.833,53.5 339.5,53.5C 339.5,49.5 339.5,45.5 339.5,41.5C 359.5,41.5 379.5,41.5 399.5,41.5C 399.5,37.5 399.5,33.5 399.5,29.5 Z"/></g>
<g><path style="opacity:1" fill="#000000" d="M 231.5,143.5 C 239.833,143.5 248.167,143.5 256.5,143.5C 256.5,154.833 256.5,166.167 256.5,177.5C 258.5,177.5 260.5,177.5 262.5,177.5C 262.5,185.5 262.5,193.5 262.5,201.5C 266.5,201.5 270.5,201.5 274.5,201.5C 274.5,205.5 274.5,209.5 274.5,213.5C 276.5,213.5 278.5,213.5 280.5,213.5C 280.5,236.5 280.5,259.5 280.5,282.5C 278.5,282.5 276.5,282.5 274.5,282.5C 274.5,289.833 274.5,297.167 274.5,304.5C 272.5,304.5 270.5,304.5 268.5,304.5C 268.5,308.5 268.5,312.5 268.5,316.5C 246.167,316.5 223.833,316.5 201.5,316.5C 201.5,312.5 201.5,308.5 201.5,304.5C 199.5,304.5 197.5,304.5 195.5,304.5C 195.5,270.167 195.5,235.833 195.5,201.5C 197.5,201.5 199.5,201.5 201.5,201.5C 201.5,197.5 201.5,193.5 201.5,189.5C 203.5,189.5 205.5,189.5 207.5,189.5C 207.5,185.5 207.5,181.5 207.5,177.5C 209.5,177.5 211.5,177.5 213.5,177.5C 213.5,174.167 213.5,170.833 213.5,167.5C 215.5,167.5 217.5,167.5 219.5,167.5C 219.5,163.5 219.5,159.5 219.5,155.5C 223.5,155.5 227.5,155.5 231.5,155.5C 231.5,151.5 231.5,147.5 231.5,143.5 Z"/></g>
<g><path style="opacity:1" fill="#000000" d="M 345.5,143.5 C 355.833,143.5 366.167,143.5 376.5,143.5C 376.5,147.5 376.5,151.5 376.5,155.5C 378.5,155.5 380.5,155.5 382.5,155.5C 382.5,159.5 382.5,163.5 382.5,167.5C 384.5,167.5 386.5,167.5 388.5,167.5C 388.5,170.833 388.5,174.167 388.5,177.5C 390.5,177.5 392.5,177.5 394.5,177.5C 394.5,181.5 394.5,185.5 394.5,189.5C 396.5,189.5 398.5,189.5 400.5,189.5C 400.5,193.5 400.5,197.5 400.5,201.5C 402.5,201.5 404.5,201.5 406.5,201.5C 406.5,221.167 406.5,240.833 406.5,260.5C 404.5,260.5 402.5,260.5 400.5,260.5C 400.5,267.833 400.5,275.167 400.5,282.5C 398.5,282.5 396.5,282.5 394.5,282.5C 394.5,289.833 394.5,297.167 394.5,304.5C 390.5,304.5 386.5,304.5 382.5,304.5C 382.5,308.5 382.5,312.5 382.5,316.5C 350.167,316.5 317.833,316.5 285.5,316.5C 285.5,285.5 285.5,254.5 285.5,223.5C 287.5,223.5 289.5,223.5 291.5,223.5C 291.5,220.167 291.5,216.833 291.5,213.5C 293.5,213.5 295.5,213.5 297.5,213.5C 297.5,209.5 297.5,205.5 297.5,201.5C 301.5,201.5 305.5,201.5 309.5,201.5C 309.5,197.5 309.5,193.5 309.5,189.5C 311.5,189.5 313.5,189.5 315.5,189.5C 315.5,185.5 315.5,181.5 315.5,177.5C 319.5,177.5 323.5,177.5 327.5,177.5C 327.5,174.167 327.5,170.833 327.5,167.5C 331.5,167.5 335.5,167.5 339.5,167.5C 339.5,163.5 339.5,159.5 339.5,155.5C 341.5,155.5 343.5,155.5 345.5,155.5C 345.5,151.5 345.5,147.5 345.5,143.5 Z"/></g>
<g><path style="opacity:1" fill="#000000" d="M 465.5,177.5 C 475.833,177.5 486.167,177.5 496.5,177.5C 496.5,181.5 496.5,185.5 496.5,189.5C 498.5,189.5 500.5,189.5 502.5,189.5C 502.5,197.5 502.5,205.5 502.5,213.5C 504.5,213.5 506.5,213.5 508.5,213.5C 508.5,229.167 508.5,244.833 508.5,260.5C 506.5,260.5 504.5,260.5 502.5,260.5C 502.5,267.833 502.5,275.167 502.5,282.5C 500.5,282.5 498.5,282.5 496.5,282.5C 496.5,286.5 496.5,290.5 496.5,294.5C 494.5,294.5 492.5,294.5 490.5,294.5C 490.5,297.833 490.5,301.167 490.5,304.5C 488.5,304.5 486.5,304.5 484.5,304.5C 484.5,308.5 484.5,312.5 484.5,316.5C 482.5,316.5 480.5,316.5 478.5,316.5C 478.5,320.5 478.5,324.5 478.5,328.5C 462.167,328.5 445.833,328.5 429.5,328.5C 429.5,324.5 429.5,320.5 429.5,316.5C 419.5,316.5 409.5,316.5 399.5,316.5C 399.5,308.167 399.5,299.833 399.5,291.5C 401.5,291.5 403.5,291.5 405.5,291.5C 405.5,284.167 405.5,276.833 405.5,269.5C 407.5,269.5 409.5,269.5 411.5,269.5C 411.5,265.5 411.5,261.5 411.5,257.5C 413.5,257.5 415.5,257.5 417.5,257.5C 417.5,250.167 417.5,242.833 417.5,235.5C 421.5,235.5 425.5,235.5 429.5,235.5C 429.5,231.5 429.5,227.5 429.5,223.5C 431.5,223.5 433.5,223.5 435.5,223.5C 435.5,220.167 435.5,216.833 435.5,213.5C 437.5,213.5 439.5,213.5 441.5,213.5C 441.5,209.5 441.5,205.5 441.5,201.5C 445.5,201.5 449.5,201.5 453.5,201.5C 453.5,197.5 453.5,193.5 453.5,189.5C 457.5,189.5 461.5,189.5 465.5,189.5C 465.5,185.5 465.5,181.5 465.5,177.5 Z"/></g>
<g><path style="opacity:1" fill="#000000" d="M 561.5,201.5 C 569.833,201.5 578.167,201.5 586.5,201.5C 586.5,205.5 586.5,209.5 586.5,213.5C 590.5,213.5 594.5,213.5 598.5,213.5C 598.5,216.833 598.5,220.167 598.5,223.5C 600.5,223.5 602.5,223.5 604.5,223.5C 604.5,247.167 604.5,270.833 604.5,294.5C 602.5,294.5 600.5,294.5 598.5,294.5C 598.5,297.833 598.5,301.167 598.5,304.5C 596.5,304.5 594.5,304.5 592.5,304.5C 592.5,308.5 592.5,312.5 592.5,316.5C 590.5,316.5 588.5,316.5 586.5,316.5C 586.5,320.5 586.5,324.5 586.5,328.5C 584.5,328.5 582.5,328.5 580.5,328.5C 580.5,332.5 580.5,336.5 580.5,340.5C 578.5,340.5 576.5,340.5 574.5,340.5C 574.5,343.833 574.5,347.167 574.5,350.5C 558.167,350.5 541.833,350.5 525.5,350.5C 525.5,347.167 525.5,343.833 525.5,340.5C 519.5,340.5 513.5,340.5 507.5,340.5C 507.5,336.5 507.5,332.5 507.5,328.5C 505.5,328.5 503.5,328.5 501.5,328.5C 501.5,324.5 501.5,320.5 501.5,316.5C 499.5,316.5 497.5,316.5 495.5,316.5C 495.5,312.167 495.5,307.833 495.5,303.5C 497.5,303.5 499.5,303.5 501.5,303.5C 501.5,299.5 501.5,295.5 501.5,291.5C 503.5,291.5 505.5,291.5 507.5,291.5C 507.5,284.167 507.5,276.833 507.5,269.5C 509.5,269.5 511.5,269.5 513.5,269.5C 513.5,265.5 513.5,261.5 513.5,257.5C 515.5,257.5 517.5,257.5 519.5,257.5C 519.5,254.167 519.5,250.833 519.5,247.5C 523.5,247.5 527.5,247.5 531.5,247.5C 531.5,243.5 531.5,239.5 531.5,235.5C 533.5,235.5 535.5,235.5 537.5,235.5C 537.5,231.5 537.5,227.5 537.5,223.5C 541.5,223.5 545.5,223.5 549.5,223.5C 549.5,220.167 549.5,216.833 549.5,213.5C 553.5,213.5 557.5,213.5 561.5,213.5C 561.5,209.5 561.5,205.5 561.5,201.5 Z"/></g>
<g><path style="opacity:1" fill="#000000" d="M 639.5,257.5 C 647.833,257.5 656.167,257.5 664.5,257.5C 664.5,273.167 664.5,288.833 664.5,304.5C 662.5,304.5 660.5,304.5 658.5,304.5C 658.5,312.5 658.5,320.5 658.5,328.5C 656.5,328.5 654.5,328.5 652.5,328.5C 652.5,332.5 652.5,336.5 652.5,340.5C 650.5,340.5 648.5,340.5 646.5,340.5C 646.5,343.833 646.5,347.167 646.5,350.5C 644.5,350.5 642.5,350.5 640.5,350.5C 640.5,354.5 640.5,358.5 640.5,362.5C 634.5,362.5 628.5,362.5 622.5,362.5C 622.5,366.5 622.5,370.5 622.5,374.5C 614.167,374.5 605.833,374.5 597.5,374.5C 597.5,370.5 597.5,366.5 597.5,362.5C 593.5,362.5 589.5,362.5 585.5,362.5C 585.5,354.167 585.5,345.833 585.5,337.5C 587.5,337.5 589.5,337.5 591.5,337.5C 591.5,334.167 591.5,330.833 591.5,327.5C 593.5,327.5 595.5,327.5 597.5,327.5C 597.5,323.5 597.5,319.5 597.5,315.5C 599.5,315.5 601.5,315.5 603.5,315.5C 603.5,311.5 603.5,307.5 603.5,303.5C 605.5,303.5 607.5,303.5 609.5,303.5C 609.5,296.167 609.5,288.833 609.5,281.5C 615.5,281.5 621.5,281.5 627.5,281.5C 627.5,277.5 627.5,273.5 627.5,269.5C 631.5,269.5 635.5,269.5 639.5,269.5C 639.5,265.5 639.5,261.5 639.5,257.5 Z"/></g>
<g><path style="opacity:1" fill="#000000" d="M 687.5,291.5 C 695.833,291.5 704.167,291.5 712.5,291.5C 712.5,311.167 712.5,330.833 712.5,350.5C 710.5,350.5 708.5,350.5 706.5,350.5C 706.5,354.5 706.5,358.5 706.5,362.5C 704.5,362.5 702.5,362.5 700.5,362.5C 700.5,366.5 700.5,370.5 700.5,374.5C 698.5,374.5 696.5,374.5 694.5,374.5C 694.5,377.833 694.5,381.167 694.5,384.5C 690.5,384.5 686.5,384.5 682.5,384.5C 682.5,388.5 682.5,392.5 682.5,396.5C 674.167,396.5 665.833,396.5 657.5,396.5C 657.5,392.5 657.5,388.5 657.5,384.5C 653.5,384.5 649.5,384.5 645.5,384.5C 645.5,376.833 645.5,369.167 645.5,361.5C 647.5,361.5 649.5,361.5 651.5,361.5C 651.5,357.5 651.5,353.5 651.5,349.5C 653.5,349.5 655.5,349.5 657.5,349.5C 657.5,345.5 657.5,341.5 657.5,337.5C 659.5,337.5 661.5,337.5 663.5,337.5C 663.5,330.167 663.5,322.833 663.5,315.5C 665.5,315.5 667.5,315.5 669.5,315.5C 669.5,311.5 669.5,307.5 669.5,303.5C 675.5,303.5 681.5,303.5 687.5,303.5C 687.5,299.5 687.5,295.5 687.5,291.5 Z"/></g>
<g><path style="opacity:1" fill="#000000" d="M 735.5,327.5 C 739.833,327.5 744.167,327.5 748.5,327.5C 748.5,330.833 748.5,334.167 748.5,337.5C 750.5,337.5 752.5,337.5 754.5,337.5C 754.5,357.167 754.5,376.833 754.5,396.5C 752.5,396.5 750.5,396.5 748.5,396.5C 748.5,400.5 748.5,404.5 748.5,408.5C 746.5,408.5 744.5,408.5 742.5,408.5C 742.5,411.833 742.5,415.167 742.5,418.5C 730.167,418.5 717.833,418.5 705.5,418.5C 705.5,415.167 705.5,411.833 705.5,408.5C 701.5,408.5 697.5,408.5 693.5,408.5C 693.5,404.167 693.5,399.833 693.5,395.5C 695.5,395.5 697.5,395.5 699.5,395.5C 699.5,391.5 699.5,387.5 699.5,383.5C 701.5,383.5 703.5,383.5 705.5,383.5C 705.5,379.5 705.5,375.5 705.5,371.5C 707.5,371.5 709.5,371.5 711.5,371.5C 711.5,368.167 711.5,364.833 711.5,361.5C 713.5,361.5 715.5,361.5 717.5,361.5C 717.5,353.5 717.5,345.5 717.5,337.5C 723.5,337.5 729.5,337.5 735.5,337.5C 735.5,334.167 735.5,330.833 735.5,327.5 Z"/></g>
<g><path style="opacity:1" fill="#000000" d="M 219.5,337.5 C 287.833,337.5 356.167,337.5 424.5,337.5C 424.5,341.5 424.5,345.5 424.5,349.5C 448.5,349.5 472.5,349.5 496.5,349.5C 496.5,353.5 496.5,357.5 496.5,361.5C 504.5,361.5 512.5,361.5 520.5,361.5C 520.5,364.833 520.5,368.167 520.5,371.5C 538.5,371.5 556.5,371.5 574.5,371.5C 574.5,375.5 574.5,379.5 574.5,383.5C 580.5,383.5 586.5,383.5 592.5,383.5C 592.5,387.5 592.5,391.5 592.5,395.5C 606.5,395.5 620.5,395.5 634.5,395.5C 634.5,398.833 634.5,402.167 634.5,405.5C 640.5,405.5 646.5,405.5 652.5,405.5C 652.5,409.5 652.5,413.5 652.5,417.5C 662.5,417.5 672.5,417.5 682.5,417.5C 682.5,421.5 682.5,425.5 682.5,429.5C 686.5,429.5 690.5,429.5 694.5,429.5C 694.5,433.5 694.5,437.5 694.5,441.5C 696.5,441.5 698.5,441.5 700.5,441.5C 700.5,445.833 700.5,450.167 700.5,454.5C 684.5,454.5 668.5,454.5 652.5,454.5C 652.5,457.833 652.5,461.167 652.5,464.5C 564.167,464.5 475.833,464.5 387.5,464.5C 387.5,461.167 387.5,457.833 387.5,454.5C 361.5,454.5 335.5,454.5 309.5,454.5C 309.5,450.5 309.5,446.5 309.5,442.5C 287.5,442.5 265.5,442.5 243.5,442.5C 243.5,438.5 243.5,434.5 243.5,430.5C 227.5,430.5 211.5,430.5 195.5,430.5C 195.5,426.5 195.5,422.5 195.5,418.5C 193.5,418.5 191.5,418.5 189.5,418.5C 189.5,402.833 189.5,387.167 189.5,371.5C 191.5,371.5 193.5,371.5 195.5,371.5C 195.5,368.167 195.5,364.833 195.5,361.5C 199.5,361.5 203.5,361.5 207.5,361.5C 207.5,357.5 207.5,353.5 207.5,349.5C 211.5,349.5 215.5,349.5 219.5,349.5C 219.5,345.5 219.5,341.5 219.5,337.5 Z"/></g>
<g><path style="opacity:1" fill="#000000" d="M 993.5,337.5 C 1013.83,337.5 1034.17,337.5 1054.5,337.5C 1054.5,341.5 1054.5,345.5 1054.5,349.5C 1056.5,349.5 1058.5,349.5 1060.5,349.5C 1060.5,353.5 1060.5,357.5 1060.5,361.5C 1062.5,361.5 1064.5,361.5 1066.5,361.5C 1066.5,377.167 1066.5,392.833 1066.5,408.5C 1064.5,408.5 1062.5,408.5 1060.5,408.5C 1060.5,411.833 1060.5,415.167 1060.5,418.5C 1058.5,418.5 1056.5,418.5 1054.5,418.5C 1054.5,422.5 1054.5,426.5 1054.5,430.5C 1052.5,430.5 1050.5,430.5 1048.5,430.5C 1048.5,438.5 1048.5,446.5 1048.5,454.5C 1046.5,454.5 1044.5,454.5 1042.5,454.5C 1042.5,461.833 1042.5,469.167 1042.5,476.5C 1040.5,476.5 1038.5,476.5 1036.5,476.5C 1036.5,487.5 1036.5,498.5 1036.5,509.5C 1038.5,509.5 1040.5,509.5 1042.5,509.5C 1042.5,525.167 1042.5,540.833 1042.5,556.5C 1040.5,556.5 1038.5,556.5 1036.5,556.5C 1036.5,563.833 1036.5,571.167 1036.5,578.5C 1032.5,578.5 1028.5,578.5 1024.5,578.5C 1024.5,582.5 1024.5,586.5 1024.5,590.5C 1022.5,590.5 1020.5,590.5 1018.5,590.5C 1018.5,594.5 1018.5,598.5 1018.5,602.5C 1016.5,602.5 1014.5,602.5 1012.5,602.5C 1012.5,605.833 1012.5,609.167 1012.5,612.5C 998.167,612.5 983.833,612.5 969.5,612.5C 969.5,609.167 969.5,605.833 969.5,602.5C 963.5,602.5 957.5,602.5 951.5,602.5C 951.5,598.5 951.5,594.5 951.5,590.5C 947.5,590.5 943.5,590.5 939.5,590.5C 939.5,586.5 939.5,582.5 939.5,578.5C 937.5,578.5 935.5,578.5 933.5,578.5C 933.5,575.167 933.5,571.833 933.5,568.5C 931.5,568.5 929.5,568.5 927.5,568.5C 927.5,564.5 927.5,560.5 927.5,556.5C 925.5,556.5 923.5,556.5 921.5,556.5C 921.5,552.5 921.5,548.5 921.5,544.5C 919.5,544.5 917.5,544.5 915.5,544.5C 915.5,537.167 915.5,529.833 915.5,522.5C 913.5,522.5 911.5,522.5 909.5,522.5C 909.5,518.5 909.5,514.5 909.5,510.5C 907.5,510.5 905.5,510.5 903.5,510.5C 903.5,506.167 903.5,501.833 903.5,497.5C 921.5,497.5 939.5,497.5 957.5,497.5C 957.5,493.5 957.5,489.5 957.5,485.5C 959.5,485.5 961.5,485.5 963.5,485.5C 963.5,471.167 963.5,456.833 963.5,442.5C 961.5,442.5 959.5,442.5 957.5,442.5C 957.5,438.5 957.5,434.5 957.5,430.5C 945.5,430.5 933.5,430.5 921.5,430.5C 921.5,426.167 921.5,421.833 921.5,417.5C 923.5,417.5 925.5,417.5 927.5,417.5C 927.5,413.5 927.5,409.5 927.5,405.5C 929.5,405.5 931.5,405.5 933.5,405.5C 933.5,402.167 933.5,398.833 933.5,395.5C 935.5,395.5 937.5,395.5 939.5,395.5C 939.5,391.5 939.5,387.5 939.5,383.5C 943.5,383.5 947.5,383.5 951.5,383.5C 951.5,379.5 951.5,375.5 951.5,371.5C 953.5,371.5 955.5,371.5 957.5,371.5C 957.5,368.167 957.5,364.833 957.5,361.5C 963.5,361.5 969.5,361.5 975.5,361.5C 975.5,357.5 975.5,353.5 975.5,349.5C 981.5,349.5 987.5,349.5 993.5,349.5C 993.5,345.5 993.5,341.5 993.5,337.5 Z M 1000.5,362.5 C 1010.17,362.5 1019.83,362.5 1029.5,362.5C 1029.5,366.5 1029.5,370.5 1029.5,374.5C 1031.5,374.5 1033.5,374.5 1035.5,374.5C 1035.5,384.833 1035.5,395.167 1035.5,405.5C 1019.83,405.5 1004.17,405.5 988.5,405.5C 988.5,398.5 988.5,391.5 988.5,384.5C 990.5,384.5 992.5,384.5 994.5,384.5C 994.5,381.167 994.5,377.833 994.5,374.5C 996.5,374.5 998.5,374.5 1000.5,374.5C 1000.5,370.5 1000.5,366.5 1000.5,362.5 Z M 976.5,522.5 C 984.167,522.5 991.833,522.5 999.5,522.5C 999.5,525.833 999.5,529.167 999.5,532.5C 1003.5,532.5 1007.5,532.5 1011.5,532.5C 1011.5,543.5 1011.5,554.5 1011.5,565.5C 1009.5,565.5 1007.5,565.5 1005.5,565.5C 1005.5,569.5 1005.5,573.5 1005.5,577.5C 991.833,577.5 978.167,577.5 964.5,577.5C 964.5,566.5 964.5,555.5 964.5,544.5C 966.5,544.5 968.5,544.5 970.5,544.5C 970.5,540.5 970.5,536.5 970.5,532.5C 972.5,532.5 974.5,532.5 976.5,532.5C 976.5,529.167 976.5,525.833 976.5,522.5 Z"/></g>
<g><path style="opacity:1" fill="#000000" d="M 1005.5,371.5 C 1009.83,371.5 1014.17,371.5 1018.5,371.5C 1018.5,375.833 1018.5,380.167 1018.5,384.5C 1016.5,384.5 1014.5,384.5 1012.5,384.5C 1012.5,388.5 1012.5,392.5 1012.5,396.5C 1008.17,396.5 1003.83,396.5 999.5,396.5C 999.5,392.167 999.5,387.833 999.5,383.5C 1001.5,383.5 1003.5,383.5 1005.5,383.5C 1005.5,379.5 1005.5,375.5 1005.5,371.5 Z"/></g>
<g><path style="opacity:1" fill="#000000" d="M 759.5,383.5 C 765.833,383.5 772.167,383.5 778.5,383.5C 778.5,387.5 778.5,391.5 778.5,395.5C 780.5,395.5 782.5,395.5 784.5,395.5C 784.5,398.833 784.5,402.167 784.5,405.5C 786.5,405.5 788.5,405.5 790.5,405.5C 790.5,417.833 790.5,430.167 790.5,442.5C 778.167,442.5 765.833,442.5 753.5,442.5C 753.5,438.5 753.5,434.5 753.5,430.5C 751.5,430.5 749.5,430.5 747.5,430.5C 747.5,426.167 747.5,421.833 747.5,417.5C 749.5,417.5 751.5,417.5 753.5,417.5C 753.5,413.5 753.5,409.5 753.5,405.5C 755.5,405.5 757.5,405.5 759.5,405.5C 759.5,398.167 759.5,390.833 759.5,383.5 Z"/></g>
<g><path style="opacity:1" fill="#000000" d="M 1065.5,417.5 C 1067.83,417.5 1070.17,417.5 1072.5,417.5C 1072.5,421.833 1072.5,426.167 1072.5,430.5C 1070.5,430.5 1068.5,430.5 1066.5,430.5C 1066.5,438.5 1066.5,446.5 1066.5,454.5C 1064.5,454.5 1062.5,454.5 1060.5,454.5C 1060.5,457.833 1060.5,461.167 1060.5,464.5C 1058.5,464.5 1056.5,464.5 1054.5,464.5C 1054.5,479.5 1054.5,494.5 1054.5,509.5C 1056.5,509.5 1058.5,509.5 1060.5,509.5C 1060.5,521.167 1060.5,532.833 1060.5,544.5C 1058.5,544.5 1056.5,544.5 1054.5,544.5C 1054.5,552.5 1054.5,560.5 1054.5,568.5C 1052.5,568.5 1050.5,568.5 1048.5,568.5C 1048.5,575.833 1048.5,583.167 1048.5,590.5C 1046.5,590.5 1044.5,590.5 1042.5,590.5C 1042.5,594.5 1042.5,598.5 1042.5,602.5C 1038.5,602.5 1034.5,602.5 1030.5,602.5C 1030.5,605.833 1030.5,609.167 1030.5,612.5C 1028.5,612.5 1026.5,612.5 1024.5,612.5C 1024.5,616.5 1024.5,620.5 1024.5,624.5C 1022.5,624.5 1020.5,624.5 1018.5,624.5C 1018.5,628.5 1018.5,632.5 1018.5,636.5C 1000.17,636.5 981.833,636.5 963.5,636.5C 963.5,632.5 963.5,628.5 963.5,624.5C 961.5,624.5 959.5,624.5 957.5,624.5C 957.5,620.167 957.5,615.833 957.5,611.5C 959.833,611.5 962.167,611.5 964.5,611.5C 964.5,615.5 964.5,619.5 964.5,623.5C 982.167,623.5 999.833,623.5 1017.5,623.5C 1017.5,619.5 1017.5,615.5 1017.5,611.5C 1019.5,611.5 1021.5,611.5 1023.5,611.5C 1023.5,607.5 1023.5,603.5 1023.5,599.5C 1025.5,599.5 1027.5,599.5 1029.5,599.5C 1029.5,596.167 1029.5,592.833 1029.5,589.5C 1033.5,589.5 1037.5,589.5 1041.5,589.5C 1041.5,581.5 1041.5,573.5 1041.5,565.5C 1043.5,565.5 1045.5,565.5 1047.5,565.5C 1047.5,558.167 1047.5,550.833 1047.5,543.5C 1049.5,543.5 1051.5,543.5 1053.5,543.5C 1053.5,536.5 1053.5,529.5 1053.5,522.5C 1051.5,522.5 1049.5,522.5 1047.5,522.5C 1047.5,514.5 1047.5,506.5 1047.5,498.5C 1045.5,498.5 1043.5,498.5 1041.5,498.5C 1041.5,494.167 1041.5,489.833 1041.5,485.5C 1043.5,485.5 1045.5,485.5 1047.5,485.5C 1047.5,478.167 1047.5,470.833 1047.5,463.5C 1049.5,463.5 1051.5,463.5 1053.5,463.5C 1053.5,456.167 1053.5,448.833 1053.5,441.5C 1055.5,441.5 1057.5,441.5 1059.5,441.5C 1059.5,437.5 1059.5,433.5 1059.5,429.5C 1061.5,429.5 1063.5,429.5 1065.5,429.5C 1065.5,425.5 1065.5,421.5 1065.5,417.5 Z"/></g>
<g><path style="opacity:1" fill="#000000" d="M 801.5,441.5 C 851.833,441.5 902.167,441.5 952.5,441.5C 952.5,444.833 952.5,448.167 952.5,451.5C 954.5,451.5 956.5,451.5 958.5,451.5C 958.5,459.833 958.5,468.167 958.5,476.5C 956.5,476.5 954.5,476.5 952.5,476.5C 952.5,480.5 952.5,484.5 952.5,488.5C 902.167,488.5 851.833,488.5 801.5,488.5C 801.5,484.5 801.5,480.5 801.5,476.5C 799.5,476.5 797.5,476.5 795.5,476.5C 795.5,468.167 795.5,459.833 795.5,451.5C 797.5,451.5 799.5,451.5 801.5,451.5C 801.5,448.167 801.5,444.833 801.5,441.5 Z"/></g>
<g><path style="opacity:1" fill="#000000" d="M 153.5,451.5 C 163.833,451.5 174.167,451.5 184.5,451.5C 184.5,471.167 184.5,490.833 184.5,510.5C 182.5,510.5 180.5,510.5 178.5,510.5C 178.5,525.833 178.5,541.167 178.5,556.5C 176.5,556.5 174.5,556.5 172.5,556.5C 172.5,560.5 172.5,564.5 172.5,568.5C 170.5,568.5 168.5,568.5 166.5,568.5C 166.5,571.833 166.5,575.167 166.5,578.5C 162.5,578.5 158.5,578.5 154.5,578.5C 154.5,586.5 154.5,594.5 154.5,602.5C 148.167,602.5 141.833,602.5 135.5,602.5C 135.5,563.5 135.5,524.5 135.5,485.5C 137.5,485.5 139.5,485.5 141.5,485.5C 141.5,478.167 141.5,470.833 141.5,463.5C 145.5,463.5 149.5,463.5 153.5,463.5C 153.5,459.5 153.5,455.5 153.5,451.5 Z"/></g>
<g><path style="opacity:1" fill="#000000" d="M 207.5,451.5 C 219.833,451.5 232.167,451.5 244.5,451.5C 244.5,455.5 244.5,459.5 244.5,463.5C 248.5,463.5 252.5,463.5 256.5,463.5C 256.5,475.167 256.5,486.833 256.5,498.5C 254.5,498.5 252.5,498.5 250.5,498.5C 250.5,517.833 250.5,537.167 250.5,556.5C 248.5,556.5 246.5,556.5 244.5,556.5C 244.5,560.5 244.5,564.5 244.5,568.5C 242.5,568.5 240.5,568.5 238.5,568.5C 238.5,575.833 238.5,583.167 238.5,590.5C 236.5,590.5 234.5,590.5 232.5,590.5C 232.5,594.5 232.5,598.5 232.5,602.5C 230.5,602.5 228.5,602.5 226.5,602.5C 226.5,605.833 226.5,609.167 226.5,612.5C 214.167,612.5 201.833,612.5 189.5,612.5C 189.5,609.167 189.5,605.833 189.5,602.5C 187.5,602.5 185.5,602.5 183.5,602.5C 183.5,598.5 183.5,594.5 183.5,590.5C 181.5,590.5 179.5,590.5 177.5,590.5C 177.5,582.167 177.5,573.833 177.5,565.5C 179.5,565.5 181.5,565.5 183.5,565.5C 183.5,550.167 183.5,534.833 183.5,519.5C 185.5,519.5 187.5,519.5 189.5,519.5C 189.5,504.833 189.5,490.167 189.5,475.5C 191.5,475.5 193.5,475.5 195.5,475.5C 195.5,471.5 195.5,467.5 195.5,463.5C 199.5,463.5 203.5,463.5 207.5,463.5C 207.5,459.5 207.5,455.5 207.5,451.5 Z"/></g>
<g><path style="opacity:1" fill="#000000" d="M 123.5,463.5 C 127.833,463.5 132.167,463.5 136.5,463.5C 136.5,467.833 136.5,472.167 136.5,476.5C 134.5,476.5 132.5,476.5 130.5,476.5C 130.5,503.167 130.5,529.833 130.5,556.5C 128.5,556.5 126.5,556.5 124.5,556.5C 124.5,560.5 124.5,564.5 124.5,568.5C 120.5,568.5 116.5,568.5 112.5,568.5C 112.5,602.167 112.5,635.833 112.5,669.5C 114.5,669.5 116.5,669.5 118.5,669.5C 118.5,672.833 118.5,676.167 118.5,679.5C 124.5,679.5 130.5,679.5 136.5,679.5C 136.5,683.5 136.5,687.5 136.5,691.5C 152.5,691.5 168.5,691.5 184.5,691.5C 184.5,695.5 184.5,699.5 184.5,703.5C 210.5,703.5 236.5,703.5 262.5,703.5C 262.5,706.833 262.5,710.167 262.5,713.5C 356.167,713.5 449.833,713.5 543.5,713.5C 543.5,710.167 543.5,706.833 543.5,703.5C 567.5,703.5 591.5,703.5 615.5,703.5C 615.5,699.5 615.5,695.5 615.5,691.5C 631.5,691.5 647.5,691.5 663.5,691.5C 663.5,687.5 663.5,683.5 663.5,679.5C 675.5,679.5 687.5,679.5 699.5,679.5C 699.5,676.167 699.5,672.833 699.5,669.5C 709.5,669.5 719.5,669.5 729.5,669.5C 729.5,665.5 729.5,661.5 729.5,657.5C 737.5,657.5 745.5,657.5 753.5,657.5C 753.5,653.5 753.5,649.5 753.5,645.5C 759.5,645.5 765.5,645.5 771.5,645.5C 771.5,641.5 771.5,637.5 771.5,633.5C 777.5,633.5 783.5,633.5 789.5,633.5C 789.5,630.167 789.5,626.833 789.5,623.5C 791.5,623.5 793.5,623.5 795.5,623.5C 795.5,619.5 795.5,615.5 795.5,611.5C 799.5,611.5 803.5,611.5 807.5,611.5C 807.5,607.5 807.5,603.5 807.5,599.5C 809.5,599.5 811.5,599.5 813.5,599.5C 813.5,592.167 813.5,584.833 813.5,577.5C 815.5,577.5 817.5,577.5 819.5,577.5C 819.5,566.5 819.5,555.5 819.5,544.5C 817.5,544.5 815.5,544.5 813.5,544.5C 813.5,536.167 813.5,527.833 813.5,519.5C 815.5,519.5 817.5,519.5 819.5,519.5C 819.5,516.167 819.5,512.833 819.5,509.5C 821.5,509.5 823.5,509.5 825.5,509.5C 825.5,505.5 825.5,501.5 825.5,497.5C 829.833,497.5 834.167,497.5 838.5,497.5C 838.5,501.5 838.5,505.5 838.5,509.5C 840.5,509.5 842.5,509.5 844.5,509.5C 844.5,516.833 844.5,524.167 844.5,531.5C 846.5,531.5 848.5,531.5 850.5,531.5C 850.5,551.167 850.5,570.833 850.5,590.5C 848.5,590.5 846.5,590.5 844.5,590.5C 844.5,597.833 844.5,605.167 844.5,612.5C 842.5,612.5 840.5,612.5 838.5,612.5C 838.5,616.5 838.5,620.5 838.5,624.5C 834.5,624.5 830.5,624.5 826.5,624.5C 826.5,628.5 826.5,632.5 826.5,636.5C 824.5,636.5 822.5,636.5 820.5,636.5C 820.5,639.833 820.5,643.167 820.5,646.5C 816.5,646.5 812.5,646.5 808.5,646.5C 808.5,650.5 808.5,654.5 808.5,658.5C 804.5,658.5 800.5,658.5 796.5,658.5C 796.5,662.5 796.5,666.5 796.5,670.5C 790.5,670.5 784.5,670.5 778.5,670.5C 778.5,674.5 778.5,678.5 778.5,682.5C 770.5,682.5 762.5,682.5 754.5,682.5C 754.5,685.833 754.5,689.167 754.5,692.5C 746.5,692.5 738.5,692.5 730.5,692.5C 730.5,696.5 730.5,700.5 730.5,704.5C 720.5,704.5 710.5,704.5 700.5,704.5C 700.5,708.5 700.5,712.5 700.5,716.5C 686.5,716.5 672.5,716.5 658.5,716.5C 658.5,719.833 658.5,723.167 658.5,726.5C 640.5,726.5 622.5,726.5 604.5,726.5C 604.5,730.5 604.5,734.5 604.5,738.5C 578.5,738.5 552.5,738.5 526.5,738.5C 526.5,742.5 526.5,746.5 526.5,750.5C 444.167,750.5 361.833,750.5 279.5,750.5C 279.5,746.5 279.5,742.5 279.5,738.5C 251.5,738.5 223.5,738.5 195.5,738.5C 195.5,734.5 195.5,730.5 195.5,726.5C 175.5,726.5 155.5,726.5 135.5,726.5C 135.5,723.167 135.5,719.833 135.5,716.5C 127.5,716.5 119.5,716.5 111.5,716.5C 111.5,712.5 111.5,708.5 111.5,704.5C 107.5,704.5 103.5,704.5 99.5,704.5C 99.5,700.5 99.5,696.5 99.5,692.5C 95.5,692.5 91.5,692.5 87.5,692.5C 87.5,689.167 87.5,685.833 87.5,682.5C 85.5,682.5 83.5,682.5 81.5,682.5C 81.5,667.167 81.5,651.833 81.5,636.5C 79.5,636.5 77.5,636.5 75.5,636.5C 75.5,620.833 75.5,605.167 75.5,589.5C 77.5,589.5 79.5,589.5 81.5,589.5C 81.5,581.5 81.5,573.5 81.5,565.5C 83.5,565.5 85.5,565.5 87.5,565.5C 87.5,562.167 87.5,558.833 87.5,555.5C 89.5,555.5 91.5,555.5 93.5,555.5C 93.5,551.5 93.5,547.5 93.5,543.5C 97.5,543.5 101.5,543.5 105.5,543.5C 105.5,539.5 105.5,535.5 105.5,531.5C 107.5,531.5 109.5,531.5 111.5,531.5C 111.5,520.167 111.5,508.833 111.5,497.5C 113.5,497.5 115.5,497.5 117.5,497.5C 117.5,490.167 117.5,482.833 117.5,475.5C 119.5,475.5 121.5,475.5 123.5,475.5C 123.5,471.5 123.5,467.5 123.5,463.5 Z"/></g>
<g><path style="opacity:1" fill="#000000" d="M 273.5,463.5 C 289.833,463.5 306.167,463.5 322.5,463.5C 322.5,467.5 322.5,471.5 322.5,475.5C 326.5,475.5 330.5,475.5 334.5,475.5C 334.5,502.5 334.5,529.5 334.5,556.5C 332.5,556.5 330.5,556.5 328.5,556.5C 328.5,567.833 328.5,579.167 328.5,590.5C 326.5,590.5 324.5,590.5 322.5,590.5C 322.5,594.5 322.5,598.5 322.5,602.5C 320.5,602.5 318.5,602.5 316.5,602.5C 316.5,605.833 316.5,609.167 316.5,612.5C 310.5,612.5 304.5,612.5 298.5,612.5C 298.5,616.5 298.5,620.5 298.5,624.5C 292.167,624.5 285.833,624.5 279.5,624.5C 279.5,620.5 279.5,616.5 279.5,612.5C 275.5,612.5 271.5,612.5 267.5,612.5C 267.5,609.167 267.5,605.833 267.5,602.5C 265.5,602.5 263.5,602.5 261.5,602.5C 261.5,575.833 261.5,549.167 261.5,522.5C 259.5,522.5 257.5,522.5 255.5,522.5C 255.5,518.167 255.5,513.833 255.5,509.5C 257.5,509.5 259.5,509.5 261.5,509.5C 261.5,498.167 261.5,486.833 261.5,475.5C 265.5,475.5 269.5,475.5 273.5,475.5C 273.5,471.5 273.5,467.5 273.5,463.5 Z"/></g>
<g><path style="opacity:1" fill="#000000" d="M 339.5,475.5 C 363.833,475.5 388.167,475.5 412.5,475.5C 412.5,494.167 412.5,512.833 412.5,531.5C 414.5,531.5 416.5,531.5 418.5,531.5C 418.5,547.167 418.5,562.833 418.5,578.5C 416.5,578.5 414.5,578.5 412.5,578.5C 412.5,586.5 412.5,594.5 412.5,602.5C 410.5,602.5 408.5,602.5 406.5,602.5C 406.5,605.833 406.5,609.167 406.5,612.5C 390.167,612.5 373.833,612.5 357.5,612.5C 357.5,609.167 357.5,605.833 357.5,602.5C 353.5,602.5 349.5,602.5 345.5,602.5C 345.5,594.5 345.5,586.5 345.5,578.5C 343.5,578.5 341.5,578.5 339.5,578.5C 339.5,544.167 339.5,509.833 339.5,475.5 Z"/></g>
<g><path style="opacity:1" fill="#000000" d="M 429.5,475.5 C 449.833,475.5 470.167,475.5 490.5,475.5C 490.5,478.833 490.5,482.167 490.5,485.5C 494.5,485.5 498.5,485.5 502.5,485.5C 502.5,489.5 502.5,493.5 502.5,497.5C 504.5,497.5 506.5,497.5 508.5,497.5C 508.5,501.5 508.5,505.5 508.5,509.5C 510.5,509.5 512.5,509.5 514.5,509.5C 514.5,516.833 514.5,524.167 514.5,531.5C 516.5,531.5 518.5,531.5 520.5,531.5C 520.5,555.167 520.5,578.833 520.5,602.5C 518.5,602.5 516.5,602.5 514.5,602.5C 514.5,605.833 514.5,609.167 514.5,612.5C 496.167,612.5 477.833,612.5 459.5,612.5C 459.5,609.167 459.5,605.833 459.5,602.5C 457.5,602.5 455.5,602.5 453.5,602.5C 453.5,598.5 453.5,594.5 453.5,590.5C 449.5,590.5 445.5,590.5 441.5,590.5C 441.5,586.5 441.5,582.5 441.5,578.5C 439.5,578.5 437.5,578.5 435.5,578.5C 435.5,575.167 435.5,571.833 435.5,568.5C 431.5,568.5 427.5,568.5 423.5,568.5C 423.5,553.167 423.5,537.833 423.5,522.5C 421.5,522.5 419.5,522.5 417.5,522.5C 417.5,510.167 417.5,497.833 417.5,485.5C 421.5,485.5 425.5,485.5 429.5,485.5C 429.5,482.167 429.5,478.833 429.5,475.5 Z"/></g>
<g><path style="opacity:1" fill="#000000" d="M 597.5,475.5 C 611.833,475.5 626.167,475.5 640.5,475.5C 640.5,478.833 640.5,482.167 640.5,485.5C 642.5,485.5 644.5,485.5 646.5,485.5C 646.5,496.833 646.5,508.167 646.5,519.5C 648.5,519.5 650.5,519.5 652.5,519.5C 652.5,523.5 652.5,527.5 652.5,531.5C 654.5,531.5 656.5,531.5 658.5,531.5C 658.5,547.167 658.5,562.833 658.5,578.5C 656.5,578.5 654.5,578.5 652.5,578.5C 652.5,582.5 652.5,586.5 652.5,590.5C 646.167,590.5 639.833,590.5 633.5,590.5C 633.5,586.5 633.5,582.5 633.5,578.5C 629.5,578.5 625.5,578.5 621.5,578.5C 621.5,575.167 621.5,571.833 621.5,568.5C 619.5,568.5 617.5,568.5 615.5,568.5C 615.5,564.5 615.5,560.5 615.5,556.5C 611.5,556.5 607.5,556.5 603.5,556.5C 603.5,548.5 603.5,540.5 603.5,532.5C 601.5,532.5 599.5,532.5 597.5,532.5C 597.5,513.5 597.5,494.5 597.5,475.5 Z"/></g>
<g><path style="opacity:1" fill="#000000" d="M 651.5,475.5 C 671.833,475.5 692.167,475.5 712.5,475.5C 712.5,478.833 712.5,482.167 712.5,485.5C 714.5,485.5 716.5,485.5 718.5,485.5C 718.5,489.5 718.5,493.5 718.5,497.5C 720.5,497.5 722.5,497.5 724.5,497.5C 724.5,501.5 724.5,505.5 724.5,509.5C 726.5,509.5 728.5,509.5 730.5,509.5C 730.5,525.167 730.5,540.833 730.5,556.5C 728.5,556.5 726.5,556.5 724.5,556.5C 724.5,560.5 724.5,564.5 724.5,568.5C 714.167,568.5 703.833,568.5 693.5,568.5C 693.5,564.5 693.5,560.5 693.5,556.5C 691.5,556.5 689.5,556.5 687.5,556.5C 687.5,552.5 687.5,548.5 687.5,544.5C 681.5,544.5 675.5,544.5 669.5,544.5C 669.5,540.5 669.5,536.5 669.5,532.5C 667.5,532.5 665.5,532.5 663.5,532.5C 663.5,529.167 663.5,525.833 663.5,522.5C 661.5,522.5 659.5,522.5 657.5,522.5C 657.5,518.5 657.5,514.5 657.5,510.5C 655.5,510.5 653.5,510.5 651.5,510.5C 651.5,498.833 651.5,487.167 651.5,475.5 Z"/></g>
<g><path style="opacity:1" fill="#000000" d="M 723.5,475.5 C 739.833,475.5 756.167,475.5 772.5,475.5C 772.5,482.833 772.5,490.167 772.5,497.5C 774.5,497.5 776.5,497.5 778.5,497.5C 778.5,509.167 778.5,520.833 778.5,532.5C 770.167,532.5 761.833,532.5 753.5,532.5C 753.5,529.167 753.5,525.833 753.5,522.5C 747.5,522.5 741.5,522.5 735.5,522.5C 735.5,514.5 735.5,506.5 735.5,498.5C 733.5,498.5 731.5,498.5 729.5,498.5C 729.5,495.167 729.5,491.833 729.5,488.5C 727.5,488.5 725.5,488.5 723.5,488.5C 723.5,484.167 723.5,479.833 723.5,475.5 Z"/></g>
<g><path style="opacity:1" fill="#000000" d="M 519.5,485.5 C 539.833,485.5 560.167,485.5 580.5,485.5C 580.5,489.5 580.5,493.5 580.5,497.5C 582.5,497.5 584.5,497.5 586.5,497.5C 586.5,504.833 586.5,512.167 586.5,519.5C 588.5,519.5 590.5,519.5 592.5,519.5C 592.5,527.5 592.5,535.5 592.5,543.5C 594.5,543.5 596.5,543.5 598.5,543.5C 598.5,563.167 598.5,582.833 598.5,602.5C 584.167,602.5 569.833,602.5 555.5,602.5C 555.5,598.5 555.5,594.5 555.5,590.5C 551.5,590.5 547.5,590.5 543.5,590.5C 543.5,586.5 543.5,582.5 543.5,578.5C 541.5,578.5 539.5,578.5 537.5,578.5C 537.5,571.167 537.5,563.833 537.5,556.5C 535.5,556.5 533.5,556.5 531.5,556.5C 531.5,552.5 531.5,548.5 531.5,544.5C 529.5,544.5 527.5,544.5 525.5,544.5C 525.5,537.167 525.5,529.833 525.5,522.5C 523.5,522.5 521.5,522.5 519.5,522.5C 519.5,510.167 519.5,497.833 519.5,485.5 Z"/></g>
<g><path style="opacity:1" fill="#000000" d="M 981.5,531.5 C 985.833,531.5 990.167,531.5 994.5,531.5C 994.5,535.833 994.5,540.167 994.5,544.5C 992.5,544.5 990.5,544.5 988.5,544.5C 988.5,548.5 988.5,552.5 988.5,556.5C 986.5,556.5 984.5,556.5 982.5,556.5C 982.5,560.5 982.5,564.5 982.5,568.5C 978.167,568.5 973.833,568.5 969.5,568.5C 969.5,564.167 969.5,559.833 969.5,555.5C 971.5,555.5 973.5,555.5 975.5,555.5C 975.5,551.5 975.5,547.5 975.5,543.5C 977.5,543.5 979.5,543.5 981.5,543.5C 981.5,539.5 981.5,535.5 981.5,531.5 Z"/></g>
</svg>
